<svg version="1.1" id="Layer_1" xmlns="http://www.w3.org/2000/svg" xmlns:xlink="http://www.w3.org/1999/xlink" x="0px" y="0px"
	 width="100%" viewBox="0 0 500 500" enable-background="new 0 0 500 500" xml:space="preserve">
<path fill="#FFFFFF" opacity="1.000000" stroke="none" 
	d="
M277.000000,501.000000 
	C184.666687,501.000000 92.833374,501.000000 1.000033,501.000000 
	C1.000000,417.666718 1.000000,334.333405 1.000000,251.000122 
	C1.000000,167.666809 1.000000,84.333496 1.000000,1.000139 
	C167.666565,1.000093 334.333130,1.000093 500.999756,1.000046 
	C500.999847,167.666519 500.999847,334.333038 500.999939,500.999786 
	C426.500000,501.000000 352.000000,501.000000 277.000000,501.000000 
M114.915337,305.984009 
	C143.806290,305.984009 172.697235,305.984009 201.876587,305.984009 
	C201.876587,276.369965 201.876587,247.153931 202.018646,217.018051 
	C202.013077,201.533325 202.348175,186.039246 201.924271,170.565979 
	C201.242294,145.672897 177.894455,123.891014 149.363815,129.757492 
	C126.566078,134.445175 113.456947,151.863754 113.333954,175.249802 
	C113.260437,189.228149 113.160919,203.206375 112.126015,217.155121 
	C98.473381,217.151779 84.818649,216.997787 71.168694,217.187378 
	C57.465034,217.377701 45.321651,221.657486 36.161251,232.335236 
	C24.376175,246.072433 21.726063,261.786682 28.353792,278.402008 
	C34.946556,294.929718 47.824818,304.657257 65.588593,305.767212 
	C81.338470,306.751373 97.203484,305.893036 113.501633,305.959045 
	C113.501633,305.959045 113.985161,305.846222 114.915337,305.984009 
M458.524841,252.503189 
	C462.934113,252.503189 467.343414,252.503189 472.231262,252.503189 
	C472.231262,259.114380 472.231262,265.021912 472.231262,270.742432 
	C476.512756,270.742432 480.285919,270.742432 484.106445,270.742432 
	C484.106445,254.884109 484.106445,239.289093 484.106445,223.507782 
	C480.050568,223.507782 476.290894,223.507782 471.862061,223.507782 
	C471.862061,230.068497 471.862061,236.437225 471.862061,242.636047 
	C465.247528,242.636047 459.305878,242.636047 452.879608,242.636047 
	C452.879608,236.151428 452.879608,229.908539 452.879608,223.524261 
	C448.628723,223.524261 444.874176,223.524261 440.936279,223.524261 
	C440.936279,239.442581 440.936279,255.124649 440.936279,270.741821 
	C445.096313,270.741821 448.864288,270.741821 453.085785,270.741821 
	C453.085785,264.565552 453.085785,258.636047 453.085785,252.503082 
	C454.877350,252.503082 456.203247,252.503082 458.524841,252.503189 
M207.547974,252.498840 
	C207.547974,258.596497 207.547974,264.694122 207.547974,270.784210 
	C211.991592,270.784210 215.769043,270.784210 220.014404,270.784210 
	C220.014404,264.657654 220.014404,258.738281 220.014404,252.812347 
	C226.554184,252.812347 232.614807,252.812347 239.163696,252.812347 
	C239.163696,259.019196 239.163696,264.927704 239.163696,270.792999 
	C243.441086,270.792999 247.218689,270.792999 251.139084,270.792999 
	C251.139084,254.983780 251.139084,239.386505 251.139084,223.630127 
	C246.991531,223.630127 243.110733,223.630127 238.754868,223.630127 
	C238.754868,230.213196 238.754868,236.460983 238.754868,242.674835 
	C232.333710,242.674835 226.393478,242.674835 219.966461,242.674835 
	C219.966461,236.231766 219.966461,229.987244 219.966461,223.679382 
	C215.604431,223.679382 211.744888,223.679382 207.548203,223.679382 
	C207.548203,233.209488 207.548203,242.354309 207.547974,252.498840 
M273.888153,252.139587 
	C280.839783,252.139587 287.791443,252.139587 294.756256,252.139587 
	C294.756256,248.475677 294.756256,245.455688 294.756256,242.048950 
	C287.422516,242.048950 280.492096,242.048950 273.394165,242.048950 
	C273.394165,238.911331 273.394165,236.178070 273.394165,232.929092 
	C281.202087,232.929092 288.767822,232.929092 296.358307,232.929092 
	C296.358307,229.499130 296.358307,226.596741 296.358307,223.545349 
	C284.451111,223.545349 272.872894,223.545349 261.072083,223.545349 
	C261.072083,239.391113 261.072083,254.968475 261.072083,271.012543 
	C267.198120,271.012543 273.151001,271.012543 279.103912,271.012543 
	C285.042389,271.012543 290.980865,271.012543 297.001648,271.012543 
	C297.001648,267.569794 297.001648,264.623810 297.001648,261.180908 
	C289.040283,261.180908 281.303833,261.180908 273.243561,261.180908 
	C273.243561,258.064270 273.243561,255.440628 273.888153,252.139587 
M338.595093,241.786301 
	C337.572113,238.978210 336.545532,236.171417 335.526733,233.361801 
	C331.823334,223.148300 331.822571,223.304245 320.812988,223.182404 
	C317.506500,223.145813 316.202820,224.392914 315.193024,227.287842 
	C310.544891,240.613693 305.697876,253.870148 300.942871,267.158875 
	C300.531219,268.309326 300.270142,269.513672 299.904572,270.816101 
	C304.459930,270.816101 308.579498,270.816101 311.847809,270.816101 
	C316.357269,267.348694 312.279480,258.920807 320.504333,258.759369 
	C324.132874,258.688141 329.021942,257.632965 331.090485,259.506622 
	C333.780884,261.943542 334.233398,266.851166 335.698456,270.829590 
	C340.051605,270.829590 344.327545,270.829590 349.003906,270.829590 
	C345.568359,261.226440 342.221619,251.871490 338.595093,241.786301 
M425.458008,223.277588 
	C414.558197,223.277588 403.658417,223.277588 392.739990,223.277588 
	C392.739990,226.949341 392.739990,229.866699 392.739990,233.247421 
	C397.959106,233.247421 402.866608,233.247421 408.206604,233.247421 
	C408.206604,246.098465 408.206604,258.484344 408.206604,270.782135 
	C412.428772,270.782135 416.197693,270.782135 420.398621,270.782135 
	C420.398621,258.159210 420.398621,245.758133 420.398621,232.900269 
	C425.745300,232.900269 430.664886,232.900269 435.602234,232.900269 
	C435.602234,229.522980 435.602234,226.621445 435.602234,223.277634 
	C432.358368,223.277634 429.398499,223.277634 425.458008,223.277588 
M366.559662,260.279572 
	C366.363586,256.497131 366.036560,252.716003 365.998169,248.931961 
	C365.912689,240.503311 365.971497,232.073181 365.971497,223.541809 
	C361.593658,223.541809 357.842957,223.541809 353.821716,223.541809 
	C353.821716,239.376663 353.821716,254.961624 353.821716,270.770264 
	C365.862213,270.770264 377.757568,270.770264 389.740112,270.770264 
	C389.740112,267.307800 389.740112,264.085632 389.740112,260.460083 
	C382.152802,260.460083 374.847687,260.460083 366.559662,260.279572 
M205.128220,291.394348 
	C205.128220,293.488068 205.128220,295.581757 205.128220,298.413696 
	C210.934921,297.073914 217.361404,300.567200 220.596436,294.245209 
	C221.757751,291.975739 220.098007,288.262665 219.745041,285.366577 
	C219.814560,282.829041 220.934174,279.539246 219.757126,277.943390 
	C216.091324,272.973328 210.508743,275.486359 205.128342,275.022980 
	C205.128342,280.533875 205.128342,285.476410 205.128220,291.394348 
M281.597870,277.094940 
	C282.003967,281.014221 279.249268,279.579071 277.169281,280.123749 
	C274.234222,280.892334 269.990540,282.238586 269.216278,284.386719 
	C268.032837,287.670013 268.334991,292.373779 269.952606,295.451691 
	C270.932007,297.315277 275.547424,297.468597 278.598389,297.967102 
	C280.413269,298.263641 282.362244,297.739288 284.828461,297.536499 
	C284.828461,290.340179 284.868469,283.082550 284.771698,275.826721 
	C284.761078,275.029388 283.966125,274.242523 283.534943,273.450806 
	C282.892670,274.382202 282.250397,275.313629 281.597870,277.094940 
M254.330902,298.560455 
	C257.037506,298.059662 259.744110,297.558868 262.662903,297.018768 
	C264.089874,285.253235 263.248108,274.874756 260.234131,273.484863 
	C260.075623,276.171509 259.925873,278.709991 259.771484,281.326813 
	C253.080048,278.677979 248.276535,280.350586 246.469971,285.767212 
	C244.414505,291.930115 247.133789,296.813019 254.330902,298.560455 
M293.950531,301.395416 
	C292.668182,302.123352 291.385803,302.851288 289.472687,303.937286 
	C294.301819,305.142975 296.016113,304.498718 297.670624,300.685394 
	C299.718567,295.965179 301.435791,291.099548 303.230530,286.272430 
	C303.928070,284.396301 304.447296,282.453888 305.047760,280.541656 
	C304.369293,280.253998 303.690796,279.966339 303.012329,279.678680 
	C301.131866,284.217651 299.251434,288.756622 297.229858,293.636139 
	C293.647614,289.458313 294.657745,283.103851 289.503082,280.442932 
	C290.302368,285.314545 292.142639,289.685211 293.596069,294.180908 
	C294.266266,296.253845 294.179779,298.571381 293.950531,301.395416 
M226.067856,282.960083 
	C226.071075,285.956512 225.950394,288.959412 226.105682,291.947937 
	C226.357605,296.796051 229.432022,299.168976 234.125519,298.378754 
	C236.272186,298.017365 238.433441,297.742767 240.532242,297.436920 
	C240.532242,291.884155 240.532242,286.106415 240.532242,280.328644 
	C238.952179,280.895325 238.227493,281.726135 238.161194,282.606537 
	C237.961594,285.257233 238.622757,288.137024 237.793442,290.526672 
	C237.063980,292.628601 235.004898,295.377594 233.131378,295.734894 
	C229.621735,296.404236 229.143860,293.120819 229.083206,290.314514 
	C229.025665,287.652100 229.162033,284.980164 228.972961,282.329559 
	C228.922684,281.624481 227.990356,280.982361 227.462997,280.311340 
	C227.005127,280.901978 226.547272,281.492645 226.067856,282.960083 
z"/>
<path fill="#3590DC" opacity="1.000000" stroke="none" 
	d="
M113.073090,217.184647 
	C113.160919,203.206375 113.260437,189.228149 113.333954,175.249802 
	C113.456947,151.863754 126.566078,134.445175 149.363815,129.757492 
	C177.894455,123.891014 201.242294,145.672897 201.924271,170.565979 
	C202.348175,186.039246 202.013077,201.533325 201.488342,217.461273 
	C171.970749,217.937302 142.983475,217.970108 113.798973,217.920486 
	C113.346825,217.683929 113.170609,217.466125 113.073090,217.184647 
z"/>
<path fill="#3490DC" opacity="1.000000" stroke="none" 
	d="
M112.599548,217.169891 
	C113.170609,217.466125 113.346825,217.683929 113.782562,218.388580 
	C113.895546,247.640167 113.827698,276.341278 113.598404,305.137939 
	C113.238708,305.398438 113.098946,305.603271 113.017677,305.848053 
	C97.203484,305.893036 81.338470,306.751373 65.588593,305.767212 
	C47.824818,304.657257 34.946556,294.929718 28.353792,278.402008 
	C21.726063,261.786682 24.376175,246.072433 36.161251,232.335236 
	C45.321651,221.657486 57.465034,217.377701 71.168694,217.187378 
	C84.818649,216.997787 98.473381,217.151779 112.599548,217.169891 
z"/>
<path fill="#1F2B5B" opacity="1.000000" stroke="none" 
	d="
M113.759857,305.042358 
	C113.827698,276.341278 113.895546,247.640167 113.979797,218.470978 
	C142.983475,217.970108 171.970749,217.937302 201.417297,217.921204 
	C201.876587,247.153931 201.876587,276.369965 201.876587,305.984009 
	C172.697235,305.984009 143.806290,305.984009 114.414818,305.708435 
	C113.914299,305.432861 113.759857,305.042358 113.759857,305.042358 
M148.994141,274.669586 
	C148.994141,278.951141 148.994141,283.232697 148.994141,287.573822 
	C155.295654,287.573822 160.989655,287.573822 167.122620,287.573822 
	C167.122620,281.875336 167.122620,276.602692 167.122620,270.670288 
	C172.950394,270.670288 178.344498,270.670288 183.731125,270.670288 
	C183.731125,264.419861 183.731125,258.853119 183.731125,252.815170 
	C178.085754,252.815170 172.817352,252.815170 166.962646,252.815170 
	C166.962646,246.787842 166.962646,241.217178 166.962646,235.529327 
	C160.653717,235.529327 154.959534,235.529327 148.680618,235.529327 
	C148.680618,241.517471 148.680618,247.081619 148.680618,253.103531 
	C142.664886,253.103531 137.241226,253.103531 131.313736,253.103531 
	C131.313736,258.373840 131.131180,263.182312 131.462036,267.955170 
	C131.531296,268.954132 133.426361,270.508698 134.595352,270.622437 
	C138.227295,270.975891 141.940308,270.516785 145.566299,270.899475 
	C146.792191,271.028870 147.852188,272.729736 148.994141,274.669586 
z"/>
<path fill="#212D5C" opacity="1.000000" stroke="none" 
	d="
M458.027008,252.503143 
	C456.203247,252.503082 454.877350,252.503082 453.085785,252.503082 
	C453.085785,258.636047 453.085785,264.565552 453.085785,270.741821 
	C448.864288,270.741821 445.096313,270.741821 440.936279,270.741821 
	C440.936279,255.124649 440.936279,239.442581 440.936279,223.524261 
	C444.874176,223.524261 448.628723,223.524261 452.879608,223.524261 
	C452.879608,229.908539 452.879608,236.151428 452.879608,242.636047 
	C459.305878,242.636047 465.247528,242.636047 471.862061,242.636047 
	C471.862061,236.437225 471.862061,230.068497 471.862061,223.507782 
	C476.290894,223.507782 480.050568,223.507782 484.106445,223.507782 
	C484.106445,239.289093 484.106445,254.884109 484.106445,270.742432 
	C480.285919,270.742432 476.512756,270.742432 472.231262,270.742432 
	C472.231262,265.021912 472.231262,259.114380 472.231262,252.503189 
	C467.343414,252.503189 462.934113,252.503189 458.027008,252.503143 
z"/>
<path fill="#212D5C" opacity="1.000000" stroke="none" 
	d="
M207.548096,251.998978 
	C207.548203,242.354309 207.548203,233.209488 207.548203,223.679382 
	C211.744888,223.679382 215.604431,223.679382 219.966461,223.679382 
	C219.966461,229.987244 219.966461,236.231766 219.966461,242.674835 
	C226.393478,242.674835 232.333710,242.674835 238.754868,242.674835 
	C238.754868,236.460983 238.754868,230.213196 238.754868,223.630127 
	C243.110733,223.630127 246.991531,223.630127 251.139084,223.630127 
	C251.139084,239.386505 251.139084,254.983780 251.139084,270.792999 
	C247.218689,270.792999 243.441086,270.792999 239.163696,270.792999 
	C239.163696,264.927704 239.163696,259.019196 239.163696,252.812347 
	C232.614807,252.812347 226.554184,252.812347 220.014404,252.812347 
	C220.014404,258.738281 220.014404,264.657654 220.014404,270.784210 
	C215.769043,270.784210 211.991592,270.784210 207.547974,270.784210 
	C207.547974,264.694122 207.547974,258.596497 207.548096,251.998978 
z"/>
<path fill="#25315F" opacity="1.000000" stroke="none" 
	d="
M273.565857,252.478271 
	C273.243561,255.440628 273.243561,258.064270 273.243561,261.180908 
	C281.303833,261.180908 289.040283,261.180908 297.001648,261.180908 
	C297.001648,264.623810 297.001648,267.569794 297.001648,271.012543 
	C290.980865,271.012543 285.042389,271.012543 279.103912,271.012543 
	C273.151001,271.012543 267.198120,271.012543 261.072083,271.012543 
	C261.072083,254.968475 261.072083,239.391113 261.072083,223.545349 
	C272.872894,223.545349 284.451111,223.545349 296.358307,223.545349 
	C296.358307,226.596741 296.358307,229.499130 296.358307,232.929092 
	C288.767822,232.929092 281.202087,232.929092 273.394165,232.929092 
	C273.394165,236.178070 273.394165,238.911331 273.394165,242.048950 
	C280.492096,242.048950 287.422516,242.048950 294.756256,242.048950 
	C294.756256,245.455688 294.756256,248.475677 294.756256,252.139587 
	C287.791443,252.139587 280.839783,252.139587 273.565857,252.478271 
z"/>
<path fill="#25305F" opacity="1.000000" stroke="none" 
	d="
M338.734985,242.151428 
	C342.221619,251.871490 345.568359,261.226440 349.003906,270.829590 
	C344.327545,270.829590 340.051605,270.829590 335.698456,270.829590 
	C334.233398,266.851166 333.780884,261.943542 331.090485,259.506622 
	C329.021942,257.632965 324.132874,258.688141 320.504333,258.759369 
	C312.279480,258.920807 316.357269,267.348694 311.847809,270.816101 
	C308.579498,270.816101 304.459930,270.816101 299.904572,270.816101 
	C300.270142,269.513672 300.531219,268.309326 300.942871,267.158875 
	C305.697876,253.870148 310.544891,240.613693 315.193024,227.287842 
	C316.202820,224.392914 317.506500,223.145813 320.812988,223.182404 
	C331.822571,223.304245 331.823334,223.148300 335.526733,233.361801 
	C336.545532,236.171417 337.572113,238.978210 338.734985,242.151428 
M326.309021,249.003815 
	C326.876923,248.327332 328.044983,247.496796 327.917175,246.998886 
	C326.948730,243.225845 325.726379,239.517960 324.583191,235.789764 
	C324.274963,235.813965 323.966705,235.838165 323.658478,235.862366 
	C322.413818,240.113129 321.169159,244.363892 319.809235,249.008286 
	C322.149323,249.008286 323.784515,249.008286 326.309021,249.003815 
z"/>
<path fill="#25305F" opacity="1.000000" stroke="none" 
	d="
M425.948334,223.277618 
	C429.398499,223.277634 432.358368,223.277634 435.602234,223.277634 
	C435.602234,226.621445 435.602234,229.522980 435.602234,232.900269 
	C430.664886,232.900269 425.745300,232.900269 420.398621,232.900269 
	C420.398621,245.758133 420.398621,258.159210 420.398621,270.782135 
	C416.197693,270.782135 412.428772,270.782135 408.206604,270.782135 
	C408.206604,258.484344 408.206604,246.098465 408.206604,233.247421 
	C402.866608,233.247421 397.959106,233.247421 392.739990,233.247421 
	C392.739990,229.866699 392.739990,226.949341 392.739990,223.277588 
	C403.658417,223.277588 414.558197,223.277588 425.948334,223.277618 
z"/>
<path fill="#212D5C" opacity="1.000000" stroke="none" 
	d="
M367.051117,260.369812 
	C374.847687,260.460083 382.152802,260.460083 389.740112,260.460083 
	C389.740112,264.085632 389.740112,267.307800 389.740112,270.770264 
	C377.757568,270.770264 365.862213,270.770264 353.821716,270.770264 
	C353.821716,254.961624 353.821716,239.376663 353.821716,223.541809 
	C357.842957,223.541809 361.593658,223.541809 365.971497,223.541809 
	C365.971497,232.073181 365.912689,240.503311 365.998169,248.931961 
	C366.036560,252.716003 366.363586,256.497131 367.051117,260.369812 
z"/>
<path fill="#479ADF" opacity="1.000000" stroke="none" 
	d="
M205.128281,290.906647 
	C205.128342,285.476410 205.128342,280.533875 205.128342,275.022980 
	C210.508743,275.486359 216.091324,272.973328 219.757126,277.943390 
	C220.934174,279.539246 219.814560,282.829041 219.745041,285.366577 
	C220.098007,288.262665 221.757751,291.975739 220.596436,294.245209 
	C217.361404,300.567200 210.934921,297.073914 205.128220,298.413696 
	C205.128220,295.581757 205.128220,293.488068 205.128281,290.906647 
M208.402740,294.819763 
	C209.129715,295.129974 209.861633,295.715759 210.582809,295.702820 
	C213.766434,295.645721 217.907501,296.539978 218.121414,291.672638 
	C218.339722,286.704529 214.176819,287.383240 210.974869,287.187225 
	C210.198059,287.139648 209.405411,287.351013 208.180176,287.495026 
	C208.180176,289.798889 208.180176,291.896515 208.402740,294.819763 
M212.219193,284.945190 
	C212.876663,284.888855 213.793304,285.087555 214.144882,284.730255 
	C215.395294,283.459534 216.453278,281.999481 217.584122,280.611115 
	C215.458359,279.492798 213.418839,278.043182 211.155350,277.453827 
	C210.457642,277.272156 208.549026,279.296753 208.252731,280.559357 
	C207.738098,282.752319 207.592270,285.474609 212.219193,284.945190 
z"/>
<path fill="#479ADF" opacity="1.000000" stroke="none" 
	d="
M281.603027,276.669983 
	C282.250397,275.313629 282.892670,274.382202 283.534943,273.450806 
	C283.966125,274.242523 284.761078,275.029388 284.771698,275.826721 
	C284.868469,283.082550 284.828461,290.340179 284.828461,297.536499 
	C282.362244,297.739288 280.413269,298.263641 278.598389,297.967102 
	C275.547424,297.468597 270.932007,297.315277 269.952606,295.451691 
	C268.334991,292.373779 268.032837,287.670013 269.216278,284.386719 
	C269.990540,282.238586 274.234222,280.892334 277.169281,280.123749 
	C279.249268,279.579071 282.003967,281.014221 281.603027,276.669983 
M281.734375,287.845215 
	C279.996918,285.948578 278.546204,283.308350 276.397003,282.479584 
	C275.374359,282.085327 271.738373,285.003540 271.560577,286.664612 
	C271.266144,289.415009 272.026672,293.052917 273.783569,295.048187 
	C275.881134,297.430389 279.093109,296.302490 280.713287,293.387421 
	C281.472290,292.021790 281.460175,290.227570 281.734375,287.845215 
z"/>
<path fill="#4298DE" opacity="1.000000" stroke="none" 
	d="
M253.963669,298.562164 
	C247.133789,296.813019 244.414505,291.930115 246.469971,285.767212 
	C248.276535,280.350586 253.080048,278.677979 259.771484,281.326813 
	C259.925873,278.709991 260.075623,276.171509 260.234131,273.484863 
	C263.248108,274.874756 264.089874,285.253235 262.662903,297.018768 
	C259.744110,297.558868 257.037506,298.059662 253.963669,298.562164 
M259.949310,290.218262 
	C259.746704,283.776581 256.000702,280.068268 252.471085,283.044373 
	C250.532104,284.679260 249.561340,288.405518 249.642593,291.144653 
	C249.692459,292.825653 252.313995,295.356262 254.212021,295.851135 
	C257.500946,296.708588 259.149445,294.041748 259.949310,290.218262 
z"/>
<path fill="#4E9EE1" opacity="1.000000" stroke="none" 
	d="
M294.193420,301.086731 
	C294.179779,298.571381 294.266266,296.253845 293.596069,294.180908 
	C292.142639,289.685211 290.302368,285.314545 289.503082,280.442932 
	C294.657745,283.103851 293.647614,289.458313 297.229858,293.636139 
	C299.251434,288.756622 301.131866,284.217651 303.012329,279.678680 
	C303.690796,279.966339 304.369293,280.253998 305.047760,280.541656 
	C304.447296,282.453888 303.928070,284.396301 303.230530,286.272430 
	C301.435791,291.099548 299.718567,295.965179 297.670624,300.685394 
	C296.016113,304.498718 294.301819,305.142975 289.472687,303.937286 
	C291.385803,302.851288 292.668182,302.123352 294.193420,301.086731 
z"/>
<path fill="#4298DE" opacity="1.000000" stroke="none" 
	d="
M226.078629,282.521667 
	C226.547272,281.492645 227.005127,280.901978 227.462997,280.311340 
	C227.990356,280.982361 228.922684,281.624481 228.972961,282.329559 
	C229.162033,284.980164 229.025665,287.652100 229.083206,290.314514 
	C229.143860,293.120819 229.621735,296.404236 233.131378,295.734894 
	C235.004898,295.377594 237.063980,292.628601 237.793442,290.526672 
	C238.622757,288.137024 237.961594,285.257233 238.161194,282.606537 
	C238.227493,281.726135 238.952179,280.895325 240.532242,280.328644 
	C240.532242,286.106415 240.532242,291.884155 240.532242,297.436920 
	C238.433441,297.742767 236.272186,298.017365 234.125519,298.378754 
	C229.432022,299.168976 226.357605,296.796051 226.105682,291.947937 
	C225.950394,288.959412 226.071075,285.956512 226.078629,282.521667 
z"/>
<path fill="#3590DC" opacity="1.000000" stroke="none" 
	d="
M113.598404,305.137939 
	C113.759857,305.042358 113.914299,305.432861 113.949730,305.639526 
	C113.985161,305.846222 113.501633,305.959045 113.259659,305.903564 
	C113.098946,305.603271 113.238708,305.398438 113.598404,305.137939 
z"/>
<path fill="#348EDA" opacity="1.000000" stroke="none" 
	d="
M148.991074,274.191010 
	C147.852188,272.729736 146.792191,271.028870 145.566299,270.899475 
	C141.940308,270.516785 138.227295,270.975891 134.595352,270.622437 
	C133.426361,270.508698 131.531296,268.954132 131.462036,267.955170 
	C131.131180,263.182312 131.313736,258.373840 131.313736,253.103531 
	C137.241226,253.103531 142.664886,253.103531 148.680618,253.103531 
	C148.680618,247.081619 148.680618,241.517471 148.680618,235.529327 
	C154.959534,235.529327 160.653717,235.529327 166.962646,235.529327 
	C166.962646,241.217178 166.962646,246.787842 166.962646,252.815170 
	C172.817352,252.815170 178.085754,252.815170 183.731125,252.815170 
	C183.731125,258.853119 183.731125,264.419861 183.731125,270.670288 
	C178.344498,270.670288 172.950394,270.670288 167.122620,270.670288 
	C167.122620,276.602692 167.122620,281.875336 167.122620,287.573822 
	C160.989655,287.573822 155.295654,287.573822 148.994141,287.573822 
	C148.994141,283.232697 148.994141,278.951141 148.991074,274.191010 
z"/>
<path fill="#F0F1F4" opacity="1.000000" stroke="none" 
	d="
M325.864380,249.006042 
	C323.784515,249.008286 322.149323,249.008286 319.809235,249.008286 
	C321.169159,244.363892 322.413818,240.113129 323.658478,235.862366 
	C323.966705,235.838165 324.274963,235.813965 324.583191,235.789764 
	C325.726379,239.517960 326.948730,243.225845 327.917175,246.998886 
	C328.044983,247.496796 326.876923,248.327332 325.864380,249.006042 
z"/>
<path fill="#EFF6FC" opacity="1.000000" stroke="none" 
	d="
M208.291458,294.406921 
	C208.180176,291.896515 208.180176,289.798889 208.180176,287.495026 
	C209.405411,287.351013 210.198059,287.139648 210.974869,287.187225 
	C214.176819,287.383240 218.339722,286.704529 218.121414,291.672638 
	C217.907501,296.539978 213.766434,295.645721 210.582809,295.702820 
	C209.861633,295.715759 209.129715,295.129974 208.291458,294.406921 
z"/>
<path fill="#EFF6FC" opacity="1.000000" stroke="none" 
	d="
M211.802933,284.947083 
	C207.592270,285.474609 207.738098,282.752319 208.252731,280.559357 
	C208.549026,279.296753 210.457642,277.272156 211.155350,277.453827 
	C213.418839,278.043182 215.458359,279.492798 217.584106,280.611115 
	C216.453278,281.999481 215.395294,283.459534 214.144882,284.730255 
	C213.793304,285.087555 212.876663,284.888855 211.802933,284.947083 
z"/>
<path fill="#F6FAFE" opacity="1.000000" stroke="none" 
	d="
M281.765991,288.236389 
	C281.460175,290.227570 281.472290,292.021790 280.713287,293.387421 
	C279.093109,296.302490 275.881134,297.430389 273.783569,295.048187 
	C272.026672,293.052917 271.266144,289.415009 271.560577,286.664612 
	C271.738373,285.003540 275.374359,282.085327 276.397003,282.479584 
	C278.546204,283.308350 279.996918,285.948578 281.765991,288.236389 
z"/>
<path fill="#F6FAFE" opacity="1.000000" stroke="none" 
	d="
M259.910156,290.619781 
	C259.149445,294.041748 257.500946,296.708588 254.212021,295.851135 
	C252.313995,295.356262 249.692459,292.825653 249.642593,291.144653 
	C249.561340,288.405518 250.532104,284.679260 252.471085,283.044373 
	C256.000702,280.068268 259.746704,283.776581 259.910156,290.619781 
z"/>
</svg>